# xmcd CD database file
#
# Track frame offsets:
#	150
#	12397
#	23374
#	35379
#	46005
#	57540
#	68789
#	80612
#	90720
#	101437
#	110521
#	123226
#	134346
#	145328
#	155115
#	163750
#	173581
#	184160
#
# Disc length: 2586 seconds
#
# Revision: 0
# Processed by: cddbd v1.5.1PL0 Copyright (c) Steve Scherf et al.
# Submitted via: CDex 1.51
#
DISCID=ec0a1812
DTITLE=Buck Owens - Act Naturally - Greatest Hits Volume 1
DYEAR=1999
DGENRE=Country
TTITLE0=Under Your Spell Again
TTITLE1=Above And Beyond
TTITLE2=Foolin' Around
TTITLE3=Under The Influence Of Love
TTITLE4=Loose Talk (with Rose Maddox)
TTITLE5=Nobody's Fool But Yours
TTITLE6=Kickin' Our Hearts Around
TTITLE7=You're For Me
TTITLE8=Act Naturally
TTITLE9=Love's Gonna Live Here
TTITLE10=Close Up The Honly Tonks
TTITLE11=My Heart Skips A Beat
TTITLE12=Together Again
TTITLE13=I Don't Care (Just As Long As You Love Me)
TTITLE14=Buck's Polka
TTITLE15=Before You Go
TTITLE16=Only You (Can Break My Heart)
TTITLE17=I've Got A Tiger By The Tail
EXTD=YEAR: 1999
EXTT0=
EXTT1=
EXTT2=
EXTT3=
EXTT4=
EXTT5=
EXTT6=
EXTT7=
EXTT8=
EXTT9=
EXTT10=
EXTT11=
EXTT12=
EXTT13=
EXTT14=
EXTT15=
EXTT16=
EXTT17=
PLAYORDER=
